<svg xmlns="http://www.w3.org/2000/svg" viewBox="0 0 420 96" role="img" aria-labelledby="title">
  <title id="title">Gambit IQ</title>
  <rect width="420" height="96" rx="18" fill="#071c24"/>
  <circle cx="49" cy="48" r="31" fill="none" stroke="#d9a72e" stroke-width="3"/>
  <circle cx="49" cy="48" r="25" fill="#0a2630" stroke="#27d17f" stroke-width="1.5"/>
  <path d="M49 25c-10 12-18 18-18 28 0 8 6 13 13 13 3 0 6-1 8-4-1 6-4 9-7 11h9c-3-2-6-5-7-11 2 3 5 4 8 4 7 0 13-5 13-13 0-10-9-16-19-28z" fill="#d9a72e"/>
  <text x="96" y="57" fill="#f4f7fb" font-family="Inter,Arial,sans-serif" font-size="32" font-weight="700" letter-spacing="5">GAMBIT IQ</text>
  <text x="99" y="77" fill="#8da3b4" font-family="Inter,Arial,sans-serif" font-size="11" font-weight="600" letter-spacing="2">OPERATOR INTELLIGENCE</text>
</svg>
